<?xml version="1.0" encoding="UTF-8" standalone="no" ?>
<!DOCTYPE svg PUBLIC "-//W3C//DTD SVG 1.1//EN" "http://www.w3.org/Graphics/SVG/1.1/DTD/svg11.dtd">
<svg xmlns="http://www.w3.org/2000/svg" xmlns:xlink="http://www.w3.org/1999/xlink" version="1.1" width="1080" height="1080" viewBox="0 0 1080 1080" xml:space="preserve">
<desc>Created with Fabric.js 5.2.4</desc>
<defs>
</defs>
<g transform="matrix(1 0 0 1 540 540)" id="7a3680ca-dba7-4dd0-a241-a99bff3a7dc4"  >
<rect style="stroke: none; stroke-width: 1; stroke-dasharray: none; stroke-linecap: butt; stroke-dashoffset: 0; stroke-linejoin: miter; stroke-miterlimit: 4; fill: rgb(255,255,255); fill-rule: nonzero; opacity: 1; visibility: hidden;" vector-effect="non-scaling-stroke"  x="-540" y="-540" rx="0" ry="0" width="1080" height="1080" />
</g>
<g transform="matrix(1 0 0 1 540 540)" id="c25b93df-8f9e-42fa-8529-c4ed9f4314f5"  >
</g>
<g transform="matrix(0.65 0.76 -0.76 0.65 540 489.81)" id="72d3d3ff-5dda-477d-af32-bf2412f8d682"  >
<path style="stroke: rgb(111,42,65); stroke-width: 0; stroke-dasharray: none; stroke-linecap: butt; stroke-dashoffset: 0; stroke-linejoin: miter; stroke-miterlimit: 4; fill: rgb(30,30,30); fill-rule: nonzero; opacity: 1;" vector-effect="non-scaling-stroke"  transform=" translate(-284.59, -235.57)" d="M 255.59226434698982 46.05288711114659 C 283.96569777797913 27.485942988832136 367.77846226365625 43.04556734287674 399.94373529425525 67.23489776178135 C 432.10900832485413 91.42422818068597 447.66863458624744 153.5319647682104 448.5839025305834 191.18886962457432 C 449.4991704749193 228.84577448093825 409.35794020961976 263.36461018447017 405.4353429602709 293.1763268999649 C 401.5127457109219 322.9880436154598 447.27635146450257 346.9158644569311 425.0483190344896 370.05916991754304 C 402.82028660447656 393.2024753781551 319.00752466193103 427.4597995969051 272.0671483801929 432.0361596636368 C 225.12677209845467 436.6125197303686 167.333884728663 429.15959055149494 143.40606134406013 397.51733031793367 C 119.47823795945727 365.8750700843725 114.11736251186612 278.66272623264734 128.50020807257576 242.18259826226964 C 142.88305363328539 205.70247029189204 208.52112532924895 211.32484768752192 229.70313470831795 178.63656249566807 C 250.88514408738695 145.94827730381422 227.21883091600023 64.61983123346104 255.59226434698982 46.05288711114659 C 283.96569777797913 27.485942988832136 367.77846226365625 43.04556734287674 399.94373529425525 67.23489776178135" stroke-linecap="round" />
</g>
</svg>