<svg xmlns="http://www.w3.org/2000/svg" version="1.1" xmlns:xlink="http://www.w3.org/1999/xlink" xmlns:svgjs="http://svgjs.dev/svgjs" viewBox="0 0 600 600"><path d="M255.59226434698982 46.05288711114659C283.96569777797913 27.485942988832136 367.77846226365625 43.04556734287674 399.94373529425525 67.23489776178135C432.10900832485413 91.42422818068597 447.66863458624744 153.5319647682104 448.5839025305834 191.18886962457432C449.4991704749193 228.84577448093825 409.35794020961976 263.36461018447017 405.4353429602709 293.1763268999649C401.5127457109219 322.9880436154598 447.27635146450257 346.9158644569311 425.0483190344896 370.05916991754304C402.82028660447656 393.2024753781551 319.00752466193103 427.4597995969051 272.0671483801929 432.0361596636368C225.12677209845467 436.6125197303686 167.333884728663 429.15959055149494 143.40606134406013 397.51733031793367C119.47823795945727 365.8750700843725 114.11736251186612 278.66272623264734 128.50020807257576 242.18259826226964C142.88305363328539 205.70247029189204 208.52112532924895 211.32484768752192 229.70313470831795 178.63656249566807C250.88514408738695 145.94827730381422 227.21883091600023 64.61983123346104 255.59226434698982 46.05288711114659C283.96569777797913 27.485942988832136 367.77846226365625 43.04556734287674 399.94373529425525 67.23489776178135 " fill="#1e1e1e" transform="matrix(1.4468656998359513,0.5266160477210267,-0.5266160477210267,1.4468656998359513,20.916619305230313,-193.05693562986482)" stroke-width="0" stroke="hsl(340, 45%, 30%)" fill-opacity="1"></path><defs><pattern id="ssshape-pattern1" width="70" height="70" viewBox="0 0 40 40" patternUnits="userSpaceOnUse" patternTransform="scale(undefined) rotate(undefined)">
  <rect width="100%" height="100%" fill="rgb(30, 30, 30)"></rect>
  <circle cx="20" cy="20" r="10" fill="hsl(340, 45%, 25%)" fill-opacity="0.5"></circle>
  <circle cx="26" cy="20" r="9" fill="hsl(340, 45%, 25%)"></circle>
  <circle cx="-14" cy="20" r="9" fill="hsl(340, 45%, 25%)"></circle>
</pattern></defs></svg>